<?xml version="1.0" standalone="no"?>
<!DOCTYPE svg PUBLIC "-//W3C//DTD SVG 20010904//EN"
 "http://www.w3.org/TR/2001/REC-SVG-20010904/DTD/svg10.dtd">
<svg version="1.0" xmlns="http://www.w3.org/2000/svg"
 width="858.000000pt" height="368.000000pt" viewBox="0 0 858.000000 368.000000"
 preserveAspectRatio="xMidYMid meet">
<metadata>
Created by potrace 1.16, written by Peter Selinger 2001-2019
</metadata>
<g transform="translate(0.000000,368.000000) scale(0.100000,-0.100000)"
fill="#000000" stroke="none">
<path d="M725 2739 c-56 -11 -175 -48 -175 -55 0 -2 138 -4 308 -3 277 1 304
2 274 15 -98 43 -301 64 -407 43z"/>
<path d="M342 2555 l-37 -34 430 -1 430 0 60 24 c33 14 61 23 64 21 2 -2 -15
-26 -38 -53 -67 -81 -52 -113 63 -133 63 -11 180 -8 193 5 9 9 -64 102 -123
155 l-56 51 -474 0 -474 0 -38 -35z"/>
<path d="M202 2397 l-22 -32 385 -5 384 -5 -37 -40 c-65 -68 -122 -146 -122
-165 0 -10 12 -28 26 -39 57 -45 192 -53 592 -37 l223 9 -6 31 c-4 17 -13 53
-22 79 l-15 49 -107 -9 c-261 -20 -387 -3 -455 61 -42 39 -46 71 -15 110 l20
26 -403 0 -403 0 -23 -33z"/>
<path d="M7040 2315 l0 -65 70 0 70 0 0 65 0 65 -70 0 -70 0 0 -65z"/>
<path d="M6138 2323 c-55 -84 -55 -83 4 -83 51 0 56 3 118 60 l65 59 -81 1
-81 0 -25 -37z"/>
<path d="M2173 2336 c-107 -35 -195 -116 -235 -215 -18 -44 -22 -76 -22 -151
0 -83 3 -103 28 -157 37 -81 111 -152 191 -183 48 -19 79 -24 155 -24 105 0
169 19 254 75 l46 31 0 154 0 154 -156 0 -156 0 7 -27 c3 -15 13 -42 20 -60
14 -33 14 -33 85 -33 l71 0 -3 -62 -3 -63 -45 -22 c-63 -32 -170 -32 -231 0
-59 32 -105 93 -119 162 -36 175 96 333 258 309 49 -7 114 -35 145 -62 17 -15
20 -14 43 13 59 71 61 75 33 98 -13 11 -48 31 -78 45 -67 31 -219 41 -288 18z"/>
<path d="M5070 1975 l0 -366 68 3 67 3 5 242 5 243 104 -155 c58 -85 107 -155
110 -155 3 0 54 73 113 163 l108 162 0 -253 0 -253 68 3 67 3 3 363 2 362 -74
0 -74 0 -102 -160 c-56 -88 -105 -162 -109 -164 -3 -2 -53 70 -111 160 l-105
164 -72 0 -73 0 0 -365z"/>
<path d="M121 2239 c-6 -18 -11 -34 -11 -35 0 -2 130 -4 289 -4 l289 0 73 35
73 35 -351 0 -351 0 -11 -31z"/>
<path d="M4004 2169 c-23 -5 -60 -26 -83 -45 l-41 -36 0 36 0 36 -65 0 -65 0
0 -355 0 -355 65 0 65 0 0 114 0 115 50 -34 c85 -57 168 -58 262 -2 44 27 58
43 87 99 30 59 34 75 34 145 0 58 -6 91 -22 129 -50 116 -170 180 -287 153z
m105 -136 c45 -34 64 -70 69 -127 11 -136 -117 -232 -219 -163 -71 48 -99 134
-68 214 34 90 146 129 218 76z"/>
<path d="M4603 2170 c-172 -35 -274 -215 -217 -382 60 -177 301 -243 456 -125
174 133 135 419 -68 490 -56 20 -122 26 -171 17z m144 -141 c46 -29 77 -98 71
-160 -15 -154 -202 -203 -286 -76 -49 74 -28 194 40 236 57 35 118 35 175 0z"/>
<path d="M6092 2169 c-56 -11 -103 -40 -146 -91 -100 -116 -83 -323 34 -419
72 -61 193 -74 277 -30 49 25 133 115 133 143 0 5 -27 8 -60 8 -51 0 -67 -5
-102 -30 -31 -23 -52 -30 -86 -30 -39 0 -50 5 -88 44 -25 24 -44 53 -44 65 0
21 3 21 200 21 l200 0 0 43 c0 177 -152 309 -318 276z m128 -139 c17 -12 37
-35 45 -51 l16 -29 -136 0 c-76 0 -135 4 -135 9 0 18 54 74 85 87 38 18 87 11
125 -16z"/>
<path d="M7471 2170 c-164 -34 -257 -205 -205 -380 30 -103 149 -190 259 -190
60 0 135 30 182 73 41 38 83 102 83 127 0 6 -26 10 -64 10 -57 0 -65 -3 -80
-25 -25 -38 -75 -65 -121 -65 -155 0 -202 251 -60 320 23 11 50 20 61 20 28 0
94 -35 111 -60 12 -17 25 -20 84 -20 l69 0 -15 38 c-42 104 -185 176 -304 152z"/>
<path d="M8083 2170 c-95 -20 -170 -79 -211 -169 -21 -46 -24 -64 -20 -131 7
-116 60 -195 161 -240 150 -66 312 -12 384 129 28 53 33 74 33 130 0 183 -167
317 -347 281z m99 -120 c52 -15 105 -77 113 -135 13 -82 -41 -173 -111 -191
-38 -10 -104 2 -133 23 -35 25 -71 99 -71 143 0 59 38 122 90 148 50 25 60 26
112 12z"/>
<path d="M2935 2151 c-17 -10 -43 -33 -58 -50 l-27 -33 0 46 0 46 -65 0 -65 0
0 -275 0 -275 64 0 64 0 4 148 c3 133 5 151 27 188 27 47 84 84 130 84 l31 0
0 70 0 70 -37 0 c-21 0 -52 -8 -68 -19z"/>
<path d="M3120 1957 c0 -197 1 -205 25 -253 31 -60 60 -82 128 -96 66 -13 124
1 172 43 l35 31 0 -36 0 -36 65 0 65 0 0 275 0 275 -65 0 -65 0 0 -170 c0
-183 -6 -212 -52 -244 -32 -23 -100 -20 -131 4 -38 30 -47 77 -47 253 l0 157
-65 0 -65 0 0 -203z"/>
<path d="M6474 2098 c25 -35 68 -95 95 -134 l51 -72 -100 -138 -100 -139 66
-3 c36 -2 71 1 78 7 6 5 36 46 66 90 30 44 58 81 62 81 4 0 35 -40 70 -90 l62
-90 74 0 c56 0 71 3 66 13 -4 6 -47 66 -94 132 -109 151 -105 143 -87 163 8 9
51 68 96 130 l81 112 -73 0 -74 0 -54 -80 c-30 -43 -58 -78 -64 -76 -5 1 -34
37 -64 79 l-54 77 -74 0 -74 0 45 -62z"/>
<path d="M7040 1885 l0 -275 65 0 65 0 0 275 0 275 -65 0 -65 0 0 -275z"/>
<path d="M80 2091 c0 -11 -3 -26 -6 -35 -5 -14 19 -16 210 -18 l216 -3 -65
-75 c-95 -110 -87 -141 42 -175 81 -21 190 -33 478 -50 332 -20 473 -43 606
-99 12 -5 20 2 32 32 12 31 47 175 47 196 0 20 -110 29 -445 36 -399 9 -457
16 -542 66 -56 32 -76 64 -71 109 l4 35 -253 0 c-243 0 -253 -1 -253 -19z"/>
<path d="M70 1915 l0 -35 78 0 c43 0 82 4 88 9 5 5 31 20 59 35 l50 26 -138 0
-137 0 0 -35z"/>
<path d="M97 1733 c33 -129 107 -256 207 -355 148 -149 336 -228 542 -228 101
0 205 16 216 33 4 7 8 43 8 81 0 190 -147 282 -530 331 -69 9 -154 23 -189 31
-114 26 -201 88 -201 143 0 17 -6 21 -34 21 l-34 0 15 -57z"/>
<path d="M4357 1243 c-4 -3 -7 -15 -7 -25 0 -15 8 -18 55 -18 l55 0 0 -135 c0
-128 1 -135 20 -135 19 0 20 7 20 135 l0 135 50 0 c47 0 50 2 50 25 l0 25
-118 0 c-65 0 -122 -3 -125 -7z"/>
<path d="M4720 1091 c0 -154 1 -161 20 -161 18 0 20 7 20 60 l0 60 38 0 c35 0
43 -5 85 -60 35 -45 53 -60 72 -60 14 0 25 3 25 6 0 3 -20 31 -44 63 l-44 57
29 16 c57 33 61 111 6 151 -21 16 -46 22 -117 25 l-90 4 0 -161z m185 89 c41
-46 -11 -94 -96 -88 l-44 3 -3 53 -3 52 64 0 c51 0 68 -4 82 -20z"/>
<path d="M5135 1103 c-37 -81 -69 -154 -72 -160 -3 -8 4 -13 19 -13 19 0 29 9
43 40 l18 40 79 0 78 0 16 -40 c13 -31 22 -40 40 -40 13 0 24 3 24 8 0 4 -31
75 -68 157 -91 200 -89 200 -177 8z m92 -41 c-27 -2 -51 -1 -54 2 -3 3 7 31
22 63 l27 58 27 -60 27 -60 -49 -3z"/>
<path d="M5490 1089 l0 -160 23 3 c21 3 22 8 27 113 l5 110 89 -113 c58 -75
94 -112 105 -110 14 3 16 22 16 158 0 152 0 155 -22 158 -22 3 -22 1 -25 -110
l-3 -113 -88 113 c-124 157 -127 156 -127 -49z"/>
<path d="M5923 1231 c-36 -23 -51 -68 -32 -103 15 -29 30 -38 104 -63 70 -23
84 -52 41 -80 -29 -19 -76 -13 -117 16 -24 17 -25 17 -36 -1 -10 -14 -8 -21 5
-33 70 -64 203 -41 218 38 10 55 -13 80 -96 105 -72 22 -91 40 -73 69 19 30
57 36 101 14 38 -18 40 -18 51 -1 27 44 -107 76 -166 39z"/>
<path d="M6230 1090 c0 -153 1 -160 20 -160 18 0 20 7 20 55 l0 55 50 0 c60 0
114 20 129 48 6 12 11 39 11 62 0 72 -49 100 -171 100 l-59 0 0 -160z m170 90
c25 -25 25 -41 1 -71 -15 -19 -28 -23 -72 -24 l-54 0 -3 58 -3 57 56 0 c42 0
60 -5 75 -20z"/>
<path d="M6655 1236 c-91 -40 -121 -171 -57 -247 92 -111 266 -56 279 88 12
123 -108 209 -222 159z m110 -40 c93 -39 84 -188 -14 -217 -128 -38 -197 156
-77 215 39 19 48 19 91 2z"/>
<path d="M7000 1090 l0 -160 25 0 c24 0 25 3 25 60 l0 60 38 0 c36 0 42 -5 82
-60 32 -44 50 -60 67 -60 31 0 29 8 -17 70 l-40 53 23 15 c36 24 47 44 47 82
0 73 -47 100 -177 100 l-73 0 0 -160z m184 97 c26 -19 18 -68 -14 -84 -14 -7
-46 -13 -72 -13 l-48 0 0 55 0 55 58 0 c32 0 66 -6 76 -13z"/>
<path d="M7350 1225 c0 -23 3 -25 50 -25 l50 0 0 -135 0 -135 25 0 25 0 0 135
0 135 50 0 c47 0 50 2 50 25 l0 25 -125 0 -125 0 0 -25z"/>
<path d="M7710 1090 l0 -160 115 0 115 0 0 25 c0 25 -1 25 -90 25 l-90 0 0 45
0 45 80 0 c73 0 80 2 80 20 0 18 -7 20 -80 20 l-80 0 0 45 0 45 90 0 c89 0 90
0 90 25 l0 25 -115 0 -115 0 0 -160z"/>
<path d="M8094 1232 c-37 -23 -50 -64 -34 -103 12 -27 62 -59 95 -59 9 0 30
-7 46 -16 37 -19 36 -52 -3 -73 -25 -14 -31 -14 -79 7 -40 16 -56 19 -66 10
-34 -28 58 -74 134 -65 53 6 80 28 89 73 10 54 -14 80 -95 104 -81 24 -100 50
-61 82 28 23 47 23 93 -1 36 -19 38 -19 47 0 25 45 -108 77 -166 41z"/>
</g>
</svg>
